<?xml version="1.0" encoding="utf-8"?>
<!-- Generator: Adobe Illustrator 27.2.0, SVG Export Plug-In . SVG Version: 6.00 Build 0)  -->
<svg version="1.1" id="Layer_1" xmlns="http://www.w3.org/2000/svg" xmlns:xlink="http://www.w3.org/1999/xlink" x="0px" y="0px"
	 viewBox="0 0 1200.2 1003.7" style="enable-background:new 0 0 1200.2 1003.7;" xml:space="preserve">
<style type="text/css">
	.st0{fill:#FFFFFF;}
</style>
<path class="st0" d="M119.3,370.6c1.8-1,2-2.7,2.2-4.5c0.8-4.7,1.4-9.5,2.4-14.1c3.7-15.8,11-29.9,20.5-43
	c13.9-19.2,31.4-34.4,51.4-46.8c18.9-11.7,39.2-20,61-24.9c8.3-1.8,16.6-3.3,25.1-3.6c3.8-0.1,7.6-0.7,11.5-0.7
	c9.9-0.1,19.8,0.8,29.5,2.5c1.5,0.3,3.1,0.8,4.5-0.3c0.2-1.6-0.9-2.1-1.7-2.8c-5.3-4.4-10.6-8.8-15.9-13.2
	c-3.9-3.3-7.8-6.6-11.8-9.8c-5.5-4.3-6.9-13.9-0.5-20.4c4.4-4.4,14.4-4.7,18.7,0.3c1.7,2,3,4.1,3.9,6.5c3.6,9.7,7.2,19.5,10.7,29.2
	c1.3,3.4,2.6,6.9,3.8,10.3c0.5,1.3,1.2,2.3,2.5,2.8c1.7,0.6,3.6,0.4,4-1.9c1-5.3,2-10.7,2.9-16c1.7-9.8,3.2-19.5,5-29.3
	c1-5.6,5.4-9.8,11.6-10.6c5.3-0.7,9.7,1.4,12.8,5.9c3.7,5.4,3.4,11.2-0.8,16.4c-7.4,9-14.9,18-22.3,27c-1.9,2.3-3.9,4.6-5.8,7
	c-0.7,0.9-1.2,1.8-1.9,2.8c0.3,0.7,0.5,1.3,0.8,1.8c0.7,1.2,1.8,1.8,3.2,1.3c1.1-0.3,2.1-0.7,3.2-1.1c11.5-4.2,23.1-8.5,34.6-12.7
	c2.1-0.8,4.2-1.6,6.3-2.2c6.5-1.8,13,1,15.7,6.9c2.1,4.6,2.1,9.4-0.9,13.7c-3.2,4.5-7.7,6.7-13.3,5.8c-13.5-2.3-27-4.8-40.5-7.1
	c-1.6-0.3-3.2-0.5-4.8-0.6c-1.6-0.2-2.3,0.3-3,1.8c-0.7,1.4-0.6,2.3,0.6,3.4c4.1,3.6,8.2,7.1,12.4,10.6c7.1,6,14.2,11.9,21.4,17.8
	c3,2.4,5.2,5.2,6,8.9c0.4,1.8,1.5,2.6,3.2,3.1c4.9,1.6,9.7,3.1,14.5,4.9c4.5,1.7,8.9,3.6,13.3,5.4c0.7,0.3,1.3,0.8,2.9,1.7
	c-3.1,0-4.6-1.3-6.3-1.9c-1.6-0.6-3.2-1.4-4.9-2c-1.8-0.7-3.6-1.4-5.4-2.1s-3.6-1.3-5.4-1.9c-1.7-0.5-3.3-1.1-5-1.6
	c-1.8-0.5-3.6-1-5.5-1.6c-2.3,2.2-2.7,4.8-3.7,7.6c2.2,0.6,3.8,1.1,5.5,1.5c8.5,1.7,16,5.6,22.6,11c2,1.6,4.1,3,6.4,4.2
	c5.5,3,10.9,6,16.3,9.1c1.3,0.8,2.5,1.8,4,2.8c-1.4,0.9-2-0.2-2.8-0.5c-1-0.5-1.9-1.2-2.9-1.8c-0.8-0.5-1.7-1-2.5-1.5
	c-0.8-0.5-1.6-1-2.5-1.5c-1-0.6-1.9-1.1-3-1.6c-0.8-0.4-1.7-0.7-2.5-1c-1.3,1-0.7,1.8-0.2,2.6c2.4,3.6,4.9,7.1,7.1,10.8
	c4.7,7.7,8.2,15.9,11.3,24.3c1.5,4,3.5,7.4,6.8,10.1c5.5,4.6,10,10.3,14.9,15.6c-1.2,1-1.6,0-2.1-0.4c-3.7-4-7.4-8-11.1-11.9
	c-0.9-0.9-1.7-1.9-3.5-1.9c0,1-0.3,1.9,0,2.8c0.8,2.9,1.7,5.8,2.8,8.7c1.4,4,2,8.4,4.3,12.2c0.2,0.3,0.3,0.6,0.3,0.9
	c0.5,6.6,3.1,12.7,4.6,19c1.6,6.5,3.5,13,5.2,19.4c0.1,0.3,0.2,0.6,0.2,0.9c0.8,4,3.1,7.6,3.2,11.9c0.1,4.1,1.5,8.1,2.2,12.2
	s1.3,8.2,2,12.3c1.4,8.4,1.7,16.8,2.1,25.3c0.4,8.3,0,16.6-0.6,24.9c-0.6,9.1-2.4,18-4.3,26.9c-1.7,8.2-3.5,16.2-6.4,24
	c-10.4,28.6-25.5,54.3-45.8,77c-26.2,29.3-57.6,50.8-94.4,64.6c-11.2,4.2-22.8,7.4-34.5,9.8c-0.1,0-0.3-0.1-0.5-0.1
	c-0.4-0.9,0.4-1,0.9-1.1c1.7-0.5,3.4-0.9,5.1-1.3c28.6-6.4,54.8-18.1,79.1-34.4c2.3-1.6,4.8-3.1,6.6-5.2c-0.5-1.2-1.1-1-1.7-0.7
	c-2.1,1.1-4.2,2.3-6.3,3.5c-15.9,9.1-32.5,16.4-49.9,22c-11.6,3.7-23.4,6.3-35.5,7.9c-9.4,1.2-18.8,1.2-28.2,1c-1.3,0-2.6-0.1-3.8,0
	c-1.6,0.1-3.1-0.1-4.7-0.8c-1.3-0.5-2.8-0.8-4.1-1.1c-10.6-2.2-20.6-5.8-29.6-11.8c-10.1-6.7-17.8-15.4-22.8-26.6
	c-0.3-0.7-0.7-1.4-1-2.2c-0.8-2.7-2.5-4.3-5.3-5c-1.3-0.3-2.9-0.4-3.9-2c1.9,0.2,3.6,0.4,5.3,0.6c0.3-0.6,0.7-1.1,0.6-1.4
	c-0.6-3.1-1.3-6.2-2.1-9.3c-0.4-1.5-1.9-2.1-3.2-2.7c-3.8-1.6-7.7-3.1-11.5-4.7c-0.8-0.3-1.6-0.8-2.4-1.3c0.6-1.1,1.2-0.6,1.7-0.4
	c2.8,1.2,5.6,2.4,8.4,3.5c1.3,0.5,2.7,1,4.1,1.3c0.8,0.2,1.8-0.5,1.7-1.2c-0.4-3.2-0.8-6.3-1.2-9.5c-0.2-1.2-1.1-1.8-2.2-2.3
	c-2.8-1.2-5.6-2.5-8.2-3.9c-4.5-2.4-9-4.8-13.5-7.3c-0.7-0.4-1.3-0.8-1.5-2.2c2.1,1.2,3.9,2.2,5.7,3.2c4.5,2.4,9.1,4.7,13.6,7
	c1.5,0.8,3.1,1.7,5.2,1c0.2-0.5,0.5-1.1,0.5-1.7c-0.2-2.5-0.4-5.1-0.7-7.6c-0.1-1.6-1-2.7-2.4-3.4c-1.3-0.7-2.6-1.3-3.8-2
	c-8.6-4.3-16.6-9.5-24.2-15.5c-0.5-0.4-0.9-0.9-1.3-1.3c-0.1-0.1,0.1-0.3,0.2-0.6c1.6,0.5,2.7,1.6,3.9,2.5c6.5,5,13.4,9.3,20.6,13.1
	c1.7,0.9,3.3,1.9,5.6,1.8c0.2-0.8,0.6-1.6,0.6-2.3c0-2.1-0.1-4.2-0.1-6.2c-0.1-2.5-1.2-4.2-3.4-5.3c-2.1-1.1-4.1-2.4-6.2-3.7
	c-0.5-0.3-0.8-0.8-1.7-1.6c4,0.7,6.1,4.1,9.9,3.9c0.2-0.8,0.6-1.6,0.5-2.3c0-2.1-0.2-4.2-0.3-6.2c-0.1-2.8-1.4-4.7-3.8-6.2
	c-8.1-5.2-15.3-11.5-21.9-18.6c-0.8-0.9-1.9-1.6-2.1-3.7c1.1,1,1.7,1.7,2.3,2.3c5.9,6.5,12.7,12.2,19.9,17.3c0.6,0.5,1.3,0.9,2,1.2
	c1.4,0.7,2.7,0,2.6-1.6c-0.2-3.3-0.5-6.7-0.9-10c-0.2-1.7-1.7-2.6-2.9-3.7c-4.1-3.8-8.3-7.5-12.2-11.5c-7.4-7.8-13.2-16.9-17.6-26.7
	c-0.2-0.5-0.4-1.1-0.7-2.1c1.6,0.6,1.8,1.8,2.2,2.7c3.6,7.5,8,14.5,13.3,21c3.8,4.7,8.1,9.1,12.7,13.1c1.1,0.9,2.1,2,3.8,1.7
	c1.1-1.8,0.6-3.8,0.5-5.6c-0.2-2.4-0.6-4.8-0.8-7.1c-0.2-1.7-0.8-3-2-4.2c-8.1-7.8-13.8-17.1-18.2-27.3c-3.1-7.1-5.3-14.5-6.2-22.1
	c-0.7-6.3-1.8-12.7-0.8-19.1c0.2-1.6,0.2-3.2,0.2-4.8c0.2-9.5,1.6-18.8,3.6-28c0.7-3.2,0.7-6.3-0.6-9.4c-1.5-3.5-2.5-7.2-4.5-10.6
	h-3.1c2-3.8,0.5-7.1-1.1-10.2c-3-6-6.2-11.9-9.3-17.9c-1.8-3.5-3.7-7.1-5.3-10.7c-2.8-6.1-4.8-12.5-5.4-19.3
	c-0.1-1.6-0.3-3.3-2.2-3.8L119.3,370.6L119.3,370.6z M418.7,484.3c1.7-1.4,1.3-2.8,1.1-3.9c-1.2-8.9-3.5-17.5-7.3-25.7
	c-9.9-21.4-25.6-36.9-47.2-46.2c-15.9-6.9-32.5-9.1-49.7-6.2c-10.8,1.8-21.1,5.2-30.5,10.9c-3.8,2.3-7.5,4.9-11.2,7.4
	c-0.4,0.3-1,0.9-1.5,0c0.2-0.3,0.3-0.6,0.6-0.8c15.1-12,32.4-18.3,51.6-19.7c8.8-0.6,17.6,0.3,26.2,2.3
	c18.2,4.3,33.8,13.3,46.5,27.1c14.7,16,23,34.8,24.1,56.6c0.1,2.8,0.7,5.3,1.9,7.9c2.4,5.1,4.4,10.3,5.8,15.7c0.3,1.1,0.6,2.2,1,3.2
	c0.1,0.4,0.8,0.9,1,0.8c0.5-0.2,1-0.7,1.3-1.1c0.2-0.5,0.1-1.3,0.2-1.9c1.1-7.1,1.1-14.3,0.9-21.5c-0.1-4.8-0.5-9.6-1.3-14.3
	c-3.1-18.2-10.5-34.5-22.2-48.7c-0.9-1.1-1.7-2.2-2.5-3.3c2.3,0.8,3.6,2.6,4.9,4.3c14.6,18.8,22.1,40.1,22.3,64
	c0.1,9.1-0.4,18.2-1.8,27.2c-0.4,3-1.1,6.1-0.6,9c0.9,6.2,0,12.2-1,18.1c-1.7,11.2-5.8,21.5-11.7,31.2c-4.3,7.2-9.3,13.8-15.2,19.7
	c-1.2,1.2-2.3,2.6-3.2,4.1c-1.2,1.9-2,4-3.3,5.8c-15.7,21.6-34.9,39.5-57.7,53.3c-16.7,10.1-34.5,17.4-53.3,22.4
	c-0.6,0.2-1.5,0.7-2-0.7c1.9-0.6,3.7-1.2,5.5-1.7c9.2-2.6,18.3-5.7,27.1-9.6c26.9-11.9,49.8-29.2,69.1-51.3c2.7-3.1,5.2-6.5,7.8-9.8
	c0.6-0.8,1.6-1.7,0.8-3.1c-1.8-0.2-2.8,1.2-4.1,2.1c-5.5,3.9-11.3,7.3-17.4,10c-2.7,1.2-5,2.8-7.1,4.8c-3.2,3.1-6.6,6-9.9,9
	c-0.5,0.5-1.2,0.8-1.8,1.2c1.9-3.7,6.2-5.2,8.1-9.6c-1.3,0-2.2-0.2-3-0.1c-5.1,1.2-10.2,2.4-15.4,3.6c-2.2,0.5-4.2,1.3-6.1,2.7
	c-9.3,6.8-19.3,12.5-29.8,17.3c-14.2,6.4-29.1,10.6-44.4,13.2c-1.3,0.2-2.7,0.5-5-0.5c4.2-0.7,7.4-1.1,10.6-1.8
	c19.9-3.9,38.7-11,56.1-21.5c2.6-1.6,5.1-3.3,7.6-5c0.6-0.4,1.2-1,0.9-2.3c-0.9-0.1-1.9-0.4-3-0.4c-3.5,0-7,0.2-10.5,0.1
	c-3.5-0.1-6.6,0.7-9.6,2.3c-9.9,5.3-20.3,9.3-31.2,12.3c-7.1,2-14.3,3.3-21.6,4.3c-8.7,1.2-17.5,1.4-26.3,1
	c-4.9-0.2-9.9-0.8-14.8-1.2c-1.9-0.2-3.8-0.5-5.7-0.9c-0.6-0.1-1.6-0.1-1.6-1.3c6.2,0.8,12.3,1.8,18.5,2.2c10.1,0.7,20.1,0.4,30.1-1
	c12.4-1.7,24.5-4.7,36.1-9.3c4.4-1.8,8.8-3.8,13.1-5.8c0.8-0.4,1.8-0.9,1.2-2.4c-0.5-0.1-1.1-0.3-1.7-0.4c-4.4-0.7-8.9-1.3-13.2-2.2
	c-1.8-0.4-3.4-0.2-5.1,0.4c-4.2,1.4-8.5,2.8-12.8,4.1c-8,2.3-16.2,3.8-24.5,4.4c-7.3,0.5-14.7,0.2-22.1,0.2
	c-5.4,0-10.8-0.9-16.2-1.8c-6.1-1-12.2-2.5-18.1-4.4c-1.4-0.4-2.7-1-4.2-0.1c-0.6,1.7-0.5,3.5-0.2,5.2c0.8,5.7,1.8,11.3,2.7,17
	c0.4,2.4,1.6,3.7,3.9,4.2c5.9,1.2,11.9,2.7,17.8,3.5c6.9,1,14,1.3,21,1.9c0.5,0,1.3-0.2,1.2,1c-1.1,0-2.2,0.1-3.3,0
	c-2.9-0.2-5.7-0.4-8.6-0.7c-4.8-0.5-9.5-1-14.3-1.7c-4.3-0.6-8.5-1.6-12.7-2.4c-0.9-0.2-1.8,0-3,0c0.1,1.3,0,2.5,0.3,3.5
	c0.5,1.8,1.1,3.7,1.8,5.5c2.2,5.7,5.2,11,9.2,15.7c1.2,1.5,2.6,2.9,4.7,3.1c3.8,0.4,7.6,0.8,11.4,1.2c1.6,0.2,3.2,0.2,4.8,0.3
	c7.3,0.7,14.7,0.8,22-0.1c1.7-0.2,3.4-0.5,5,0.3c-2.1,0.6-4.3,1-6.4,1c-6.4,0.1-12.8,0.3-19.2,0.1c-4.3-0.1-8.6-0.7-12.9-1
	c-0.7,0-1.3,0.5-2.4,0.9c1,1.1,1.7,2,2.5,2.7c5.1,3.7,10.6,6.5,16.6,8.5c1,0.3,2.2,0.5,3.3,0.5c9.3,0.2,18.6,0.1,27.7-1.2
	c10.4-1.5,20.8-3.5,30.9-6.3c33.6-9.5,62.9-26.5,88-50.6c19-18.3,33.8-39.5,44.8-63.5c11.9-26,17.7-53.2,18.8-81.6
	c0.3-7.2-0.5-14.3-1.5-21.5c-2.1-14.9-6.9-28.9-14.8-41.7c-21.1-34.6-52.1-53.6-92.4-57.5c-12.2-1.2-24.3,0.2-36.1,3.2
	c-23.5,5.9-43.3,18-59.4,36c-11.1,12.5-19.1,26.7-24.1,42.7c-2.9,9.4-4.4,19-5.3,28.7c-0.4,5-0.1,9.9,1.6,14.7
	c4,11.1,16.7,19.8,31.1,15.5c9.9-3,15.7-10,17.7-20.1c0.2-1.1,0.4-2.1,0.7-3.2c0.8,1.9,0.6,3.7,0.1,5.5c-5.5,20.9-30,25.7-43.5,13.4
	c-5.9-5.3-8.9-12.1-9-20c0-7.7,0.7-15.3,2.4-22.8c1.2-5.3,2.8-10.5,4.1-15.7c0.2-0.8,0.9-1.8-0.3-2.6c-1.5,0.5-1.9,2-2.5,3.2
	c-5,9.4-8.6,19.3-10.9,29.6c-1.4,6.1-2.5,12.2-2.3,18.5c0,1.8,0.3,3.5,1.1,5.1c7.4,17.7,27.6,27,45.5,21.9
	c15.8-4.6,28.1-18.8,28.2-36.9c0-4.2,0.6-8.3,1.5-12.3c5.4-23.5,27.8-43.3,57.9-40.2c2.2,0.2,4.4,0.9,6.6,1.4
	c0.5,0.1,1.3,0.2,1.1,1.1c-0.2,0.1-0.3,0.2-0.4,0.2c-0.6-0.1-1.2-0.3-1.9-0.4c-14.8-3.3-28.7-0.8-41.1,7.8
	c-14.5,10-21.8,24.3-22.5,41.9c-0.2,4.4-0.6,8.6-1.9,12.7c-4.5,14.2-17.5,26.3-35.3,27.4c-13.8,0.8-25.2-4.6-33.9-15.5
	c-0.8-1-1.5-2.1-2.4-3c-0.4-0.4-1.1-0.4-1.6-0.5c-1.1,1.5-0.8,3-0.6,4.4c0.5,3.3,1.2,6.6,1.7,9.9c0.5,3.2,2.1,5.5,4.8,7.3
	c3.9,2.5,7.9,4.8,12.3,6.3c0.7,0.2,1.9,0.1,1.9,1.9c-1.8-0.7-3.5-1.1-5.1-1.9c-3-1.5-5.9-3.1-8.9-4.6c-0.5-0.2-1.2-0.1-1.7,0.1
	c-0.3,0.1-0.4,0.8-0.4,1.3c0,0.6,0.2,1.3,0.4,1.8c1.1,2.8,2.3,5.6,3.3,8.5c0.9,2.5,2.6,3.9,5,4.7c11.9,4.3,23.9,5.4,36.3,2.6
	c15.4-3.5,27.9-11.5,37.6-24c0.6-0.8,1-2,2.5-2.3c-0.1,1.3-0.8,2.2-1.5,2.9c-3.1,3.4-6.1,7.1-9.6,10.1c-15.2,13-32.8,18-52.6,15.1
	c-3.6-0.5-7.2-1.6-10.8-2.4c-0.9-0.2-1.8,0-2.7,0c0,0.8-0.2,1.4,0,1.7c1.9,3.3,3.9,6.6,5.9,9.9c0.8,1.3,2.1,1.8,3.6,2.1
	c5,1,10.1,1.3,15.2,1.5c0.2,0,0.3,0,0.5,0c5.4-0.8,10.8-0.8,16.1-2.3c0.4-0.1,0.9,0,1.9,0.1c-1.4,1-2.4,1.4-3.4,1.5
	c-4.3,0.5-8.6,0.9-12.8,1.5c-2.6,0.4-5.1,0.4-7.6,0c-2.2-0.3-4.5-0.4-6.7-0.5c-0.7,0-1.5,0.2-2.2,0.4c-0.6,2,0.7,2.9,1.5,4
	c5.2,6.7,11.4,12.5,17.9,18c2.5,2.2,5.3,2.8,8.4,2c3.9-0.9,7.8-1.7,11.7-2.4c0.7-0.1,1.7-1,2.6,0.3c-4.9,2.2-10.4,1.9-15.4,4.2
	c0.4,0.8,0.5,1.5,1,1.8c3.5,2.2,7,4.4,10.6,6.4c0.9,0.5,2.2,0.3,3.2,0.1c3.1-0.8,6.2-1.6,9.2-2.7c22.9-8.2,41.7-21.9,56.2-41.6
	c0.9-1.2,1.9-2.4,3-3.8c0.5,1.5-0.3,2.1-0.8,2.9c-7.5,10.7-16.5,19.9-27.1,27.6c-10.7,7.7-22.3,13.7-35,17.4
	c-1.2,0.3-2.5,0.5-3.3,2.2c0.6,0.5,1.2,1.3,2,1.6c3.2,1.4,6.5,2.6,9.8,3.9c1.9,0.8,3.7,0.6,5.6-0.2c3.8-1.8,7.5-3.5,11.3-5.2
	c1-0.4,1.9-0.8,2.9-1.3c-0.2,1-0.8,1.5-1.4,1.8c-2.3,1.2-4.6,2.3-6.9,3.4c-1,0.5-2,1-2.9,1.6c-0.7,0.4-0.6,1.8,0.1,2
	c2.6,0.8,5.2,1.6,7.9,2.1c7.9,1.4,7.9,1.4,14.8-2.9c12.6-7.8,23.9-17.1,33.6-28.4c14.8-17.1,25.1-36.5,30.7-58.5
	c2.7-10.6,4-21.3,4.5-32.2c0-0.7,0.1-1.5,0.3-3.2c1.2,2.4,1,4,0.8,5.4c-0.6,6.4-1,12.8-2.1,19c-2.6,15.6-7.7,30.3-15.2,44.2
	c-9.6,17.7-22.4,32.6-38.2,45c-4.3,3.3-8.9,6.2-13.3,9.4c-1,0.7-2.4,1.1-2.3,2.7c2.1,1.2,2.1,1.2,3.9,1.3
	c11.4,0.5,22.6-0.6,33.8-3.1c3.9-0.9,7-2.6,9.8-5.5c15.2-15.7,27.2-33.5,35.6-53.6c4.1-9.7,7.3-19.8,9.3-30.2
	c1.3-6.6,2.2-13.2,2.9-19.9c0.6-5.4,0.7-10.8,0.7-16.3c0-1.8-0.2-3.5-1.2-5c-2.9-4.2-6.1-8.2-10-11.5c-0.5-0.5-1.4-0.6-2-0.9
	c-1.2,1.2-0.8,2.2-0.5,3.3c0.9,4.4,1.8,8.8,1.6,13.3c0,0.5,0.2,1.3-1,1.5c-0.1-1-0.2-1.9-0.2-2.8c0-5.7-1.4-11.1-3.1-16.4
	c-0.7-2.2-2-3.9-4.1-5.1c-7.6-4.3-15.6-6.5-24.3-5.9c-1.7,0.1-3.5,0.3-5.1,1.8c0.5,0.9,0.9,1.7,1.4,2.4c1.5,2.1,3.2,4,4.5,6.2
	c3.6,5.6,5.5,11.8,5.7,18.5c0,0.5,0.3,1.4-0.9,1.4c-0.1-0.6-0.1-1.2-0.2-1.9c-0.6-9-4.1-16.7-10.1-23.3c-3.2-3.6-3.9-3.7-8.3-2
	c-1.2,0.5-2.4,1-3.5,1.5c-0.9,0.4-1.8,0.9-2.4,1.5c-0.3,0.3-0.4,1.4-0.1,1.7c0.9,1.1,2.1,2,3.2,2.9c5.9,5.2,9.3,11.6,9.3,19.7
	c0,9.9-0.7,19.8-3.2,29.4c-0.3,1.2-0.6,2.4-1.4,3.6c-0.2-0.6-0.5-1-0.4-1.2c2.3-8.3,3.4-16.9,4.2-25.5c0.8-8.1-0.8-15.6-6-22
	c-1.8-2.3-4-4.1-6.6-5.5c-1-0.6-2.1-1-3.2-0.4c-3.3,1.9-6.4,4-8.3,7.5c0.9,1.7,2.5,1.7,3.8,2.2c4.4,2,7.1,5.4,8.2,10
	c0.2,0.6,0.5,1.6-0.6,1.9c-0.4-1.2-0.7-2.5-1.2-3.6c-1.4-3.7-4-6.1-7.7-7.4c-3.6-1.2-6.1-0.6-8.4,2.6c-2.4,3.4-4.6,6.9-6.6,10.5
	c-0.7,1.2-1,2.7-1.3,4.1c-0.7,3.8-1,7.6-1.9,11.3c-2.9,13.4-8.9,25.2-18.1,35.4c-0.7,0.8-1.5,1.4-2.3,2.1c0.4-1.5,1.2-2.6,2.1-3.6
	c4.6-5.5,8.7-11.5,11.7-18c0.5-1,1-2,0.3-3.2c-1.3-1.2-3-1.1-4.6-1.2c-3.6-0.1-3.7-1.5-3.6-4.2c0-0.5,0.1-1,0.1-1.4
	c2.2-12.9,6.6-25,14.4-35.7c2.1-3,4.6-5.7,7-8.5c0.5-0.6,1-1.3,0.1-2.3c-1.3-0.2-2.6,0.3-3.9,0.9c-4.4,2.2-8,5.3-10.5,9.6
	c-1.6,2.8-3,5.6-3.3,8.9c0,0.6-0.2,1.3-0.4,1.9c-0.2,0.6,0.1,1.7-1.3,1.7c0.3-6.4,2.5-11.8,6.6-16.6c4.1-4.8,9.4-7.6,15.5-9
	c1.4-0.3,2.8-0.7,4-1.4c3.4-2.1,6.7-4.4,10-6.7c0.5-0.4,0.8-1.2,1.2-1.7c-2.8-2.8-6.8-1.1-9.6-3.1c0.3-0.2,0.6-0.5,0.8-0.5
	c3,0.5,6,0.8,8.9,1.6c2.7,0.8,5.2,0.9,7.9-0.1c8.9-3.3,18.1-3.6,27.4-2.1c0.9,0.1,1.8-0.1,2.6-0.2c0.5-1.9-0.7-2.6-1.5-3.5
	c-12.6-13.4-28.2-20.1-46.5-20.5c-9.9-0.2-19.4,2.1-28.3,6.4c-13.9,6.7-24.1,17.2-30.8,31c-0.2,0.4-0.4,0.9-0.6,1.3
	c-0.3,0.4-0.2,1.3-1.4,0.8c0.2-0.7,0.4-1.5,0.7-2.2c2-3.6,3.9-7.4,6.2-10.8c12.6-18.2,36.7-30.7,61.8-27.1c7.4,1,14.4,3,21,6.3
	c8.8,4.3,16,10.5,22.2,17.9c1.4,1.6,2.9,2.9,4.8,3.9c3.8,2,7.5,4.3,11.2,6.4c0.9,0.5,1.9,1,3.2,1.7c0.2-1,0.5-1.6,0.3-2.1
	c-0.3-1.1-0.8-2.1-1.3-3.1c-11-21.4-28.2-35.2-51.5-41.2c-6.1-1.6-12.2-2.2-18.5-2c-0.7,0-1.9,0.6-2.3-1c6.6-0.5,12.9-0.2,19.2,1.3
	c27.4,6.7,46.6,23,57.2,49.2c0.9,2.1,1.9,4,3.4,5.7c3.3,3.9,6.3,8,9.5,12C417,482.4,417.8,483.2,418.7,484.3L418.7,484.3z
	 M263.1,350.8c0.4-0.9,0.4-1.1,0.5-1.2c0.5-0.3,1.1-0.6,1.6-0.9c8.7-4.1,17.8-7.2,27.1-9.4c3.7-0.9,6.8-2.4,9.7-4.9
	c8.8-7.7,18.2-14.6,28.3-20.6c1.1-0.7,3-1.2,2.4-3c-0.5-1.5-2.2-0.9-3.4-1c-0.8-0.1-1.6-0.1-2.4,0c-4.1,0.3-8.3,0.7-12.4,0.8
	c-6.6,0.3-13,1.5-19.4,2.6c-3.4,0.6-6.8,1.4-10.3,2.1c0.2-1.4,1.2-1.4,1.9-1.6c5.8-1.1,11.6-2.2,17.4-3.2c2-0.3,4-0.5,5.9-1.8
	c-2.8-3.1-5.3-6.1-8.2-9.4c-1,0-2.5-0.2-3.8,0c-16.3,2.8-32.1,7.4-47.1,14.2c-13.4,6.1-26.1,13.4-37.9,22.4c-1,0.7-2,1.4-3.1,2.1
	c-0.1-0.5-0.2-0.7-0.2-0.7c0.6-0.7,1.2-1.4,2-2c16.5-12.4,34.4-22.1,53.8-28.9c10.7-3.8,21.7-6.5,32.9-8.4c1.3-0.2,2.6-0.3,3.5-1.9
	c0.1-4.9,2.5-9.1,6.1-12.7c2.6-2.6,4.8-5.6,7.1-8.5c0.7-0.8,1.6-1.7,0.9-3.2c-1.8-1-3.9-0.6-5.9-0.3c-6.2,0.8-12.4,1.6-18.5,2.6
	c-18.9,3.1-36.9,9-54.3,17c-12.8,5.9-24.9,13.1-36.4,21.2c-0.8,0.6-1.5,1.7-3.2,1.2c0.9-0.8,1.5-1.5,2.3-2
	c6.4-4.2,12.7-8.6,19.3-12.5c16.6-9.7,34.3-17.1,52.9-22c14.1-3.7,28.4-6.4,42.9-6.9c2.6-0.1,4.6-0.8,6.3-2.8
	c4.2-5.2,8.5-10.4,12.8-15.6c0.6-0.7,0.7-1.7,1.1-2.5c-2.3-2-4.8-2.3-7.4-1.5c-2.4,0.8-4.8,1.7-7.2,2.6c-10,3.7-20.1,7.4-30.1,11.2
	c-2.7,1-5.5,1.6-8.4,1.4c-6.5-0.4-11.4-5.1-11.9-11.6c-0.1-1.1-0.1-2.2-0.2-3.4c-0.2-1.9-1-2.6-2.8-2.4c-2.4,0.3-4.7,0.8-7.1,1.3
	c-18.2,4-35.5,10.6-51.8,19.7c-22,12.4-41.1,28.1-56,48.7C141.9,330,134.6,345.9,132,364c-1.2,8.3-0.3,16.4,3.1,23.9
	c3.8,8.3,8.2,16.2,12.4,24.3c0.3,0.6,1.1,0.9,2,1.6c0.8-1.4,1.5-2.4,2.1-3.5c1.9-3.7,3.7-7.5,5.6-11.1c7.4-14.1,16.6-26.9,27.2-38.7
	c0.8-0.9,1.8-1.6,2.7-2.4c0.1,1-0.3,1.7-0.8,2.2c-9.8,10.6-18.3,22.2-25.4,34.8c-3.4,6-6.3,12.2-9.4,18.4c-0.8,1.6-1.5,3.3-0.8,5.1
	c1.5,3.5,3.1,7,4.8,10.4c0.5,1,1.8,0.9,2.3,0c0.8-1.6,1.5-3.2,2.1-4.8c4.2-10.8,9.5-21,15.7-30.7c10.4-16.3,23.1-30.6,38-42.9
	c13-10.8,27.3-19.4,42.7-26.3c0.6-0.3,1.3-1,2-0.1c-0.1,0.2-0.1,0.4-0.2,0.5c-0.7,0.4-1.4,0.8-2.1,1.1
	c-16.1,7.3-30.9,16.6-44.4,28.2c-22.5,19.3-39.3,42.7-50.5,70.2c-1.1,2.8-2.2,5.7-3.1,8.6c-0.3,1-0.4,2.3-0.1,3.2
	c1.4,4.3,2.9,8.5,4.4,12.7c0.2,0.6,1,1,1.8,1.9c0.6-1.4,1.2-2.3,1.5-3.3c1.6-4.9,3.2-9.7,4.8-14.6c0.3-1,0.4-2.2,1.7-2.7
	c0.7,1.2-0.3,2.2-0.6,3.2c-2.3,6.6-4.5,13.3-6.1,20.2c-0.5,2.1-0.5,4,0,6.1c1.5,5.5,2.8,11.1,4.2,16.7c0.4,1.5,0.8,3.1,1.4,4.6
	c0.1,0.3,0.8,0.5,1.2,0.5c0.2,0,0.6-0.3,0.7-0.5c0.2-0.4,0.3-0.9,0.3-1.4c0.6-4.8,1.2-9.5,1.9-14.2c2-12.7,5.8-24.9,11.1-36.6
	c9.6-21.5,23.3-40,41.2-55.3c4.4-3.7,9.1-7,13.7-10.5c0.4-0.3,1-1,1.7,0c-1,0.8-1.9,1.6-3,2.3c-25,17.8-43.2,41-54.7,69.5
	c-4.9,12.2-8.3,24.8-9.7,37.9c-0.6,5.4-1,10.8-1.5,16.2c-0.2,2.9,0,5.7,0.5,8.6c3.1,15.2,6,30.4,7.8,45.8c0.2,1.6,0.8,3.1,2,4.3
	c5.5,5.5,11.6,10,18.5,13.5c0.8,0.4,1.5,0.5,2.3-0.5c-0.2-0.8-0.4-1.7-0.8-2.5c-0.9-2.2-2-4.4-2.9-6.6c-1.5-3.7-2.7-7.6-6.4-10.1
	c1.4-2.2,1.3-4.2,0.7-6.5c-1-3.8-1.6-7.8-2.4-11.7c-0.6-3.1-1.3-6.2-2.8-9.1c-2.7-5.5-3.9-11.5-4.6-17.5c-0.1-1.2,0.1-2.4,0.1-3.5
	c0.8,1.8,1,3.7,1.3,5.5c0.2,1.7,0.4,3.5,0.9,5.2c0.5,1.7,0.4,3.9,2.6,5.1c0.3-0.7,0.6-1.2,0.7-1.7c0.3-2.4,0.5-4.8,0.7-7.2
	c0.2-2.7,0.2-5.5,0.6-8.1c1.6-11.5,5-22.4,9.4-33.1c1.9-4.6,3.8-9.2,5.6-13.8c5.9-15.2,14.5-28.8,25.5-40.8c1.4-1.5,2.6-3.3,5.1-2.9
	c0.5,0.1,1.2-0.5,1.6-0.9c0.9-0.9,1.8-1.9,2.6-2.8c5.9-6.8,11.7-13.6,17.6-20.3c3.3-3.7,6.6-7.4,9.9-11.1c0.5-0.6,0.8-1.5,1.2-2.4
	c-2.1-0.9-3.4,0.2-4.8,0.9c-13.1,6.5-25,14.8-35.6,25c-13.7,13.2-24.5,28.6-32.1,46.1c-1,2.4-1.9,4.7-3,7.1
	c-0.2,0.4-0.3,1.4-1.3,0.7c0.3-0.9,0.5-1.8,0.9-2.7c6.1-15.8,14.8-30.1,25.9-42.9c14.6-16.6,32-29.3,52.3-38c2.4-1,4.4-2.4,6.3-4.2
	c3.5-3.5,7.1-6.9,10.6-10.4c0.3-0.3,0.8-0.6,1-1c0.3-0.5,0.6-1.2,0.5-1.7c-0.1-0.4-1-0.6-1.5-0.6c-0.8,0-1.6,0.2-2.3,0.5
	c-4.1,1.3-8.2,2.5-12.3,4C271.9,347.2,267.8,348.9,263.1,350.8L263.1,350.8z M453.9,445.5c0.1-2.1-0.3-3.8-0.8-5.5
	c-2.7-10.2-5.5-20.4-8.2-30.5c-0.6-2.4-1.8-4.4-3.3-6.3c-8-10.1-17.2-18.9-27.6-26.5c-13.5-9.9-28.3-17.3-44.5-21.9
	c-12.2-3.5-24.6-5.6-37.3-5.6c-0.7,0-1.5-0.1-2.4-0.2c0.8-1.4,1.8-0.9,2.7-0.9c9.8-0.2,19.5,1.1,29,3.3c27,6.2,50.3,19.1,69.9,38.7
	c2.3,2.3,4.4,4.6,6.6,6.9c0.6,0.7,1.2,1.5,2.4,1.2c0.5-2.4,0.5-2.4,0.1-3.6c-0.9-3.2-1.9-6.4-2.9-9.6c-2.2-7.6-2.5-8-8.8-13.2
	c-0.2-0.2-0.5-0.4-0.8-0.6c-11.2-9.1-23.5-16.6-36.7-22.4c-0.9-0.4-2.3-0.4-2.6-1.8c0.8-0.6,1.5,0,2.2,0.3
	c13,5.6,25.1,12.7,36.1,21.5c1.1,0.9,2.3,1.8,3.4,2.6c0.7,0.5,1.4,0.7,2.3-0.3c-0.3-1.2-0.6-2.6-1.1-3.9c-1.1-3.2-2.4-6.3-3.5-9.4
	c-1-2.9-2.8-4.9-5.3-6.5c-10.5-6.9-21.5-12.6-33.1-17.1c-14.9-5.8-30.3-9-46.1-10.6c-2.5-0.3-5.1-0.2-7.7-0.2
	c-1.1,0-2.3,0.3-3.2,0.9c-4,2.6-8,5.3-11.9,8c-0.6,0.4-1.2,1.1-0.6,2.3c6.2,0.2,12.6,0.2,18.9,0.7c6.4,0.5,13,0.5,19.9,2.8
	c-1.2,0.3-1.6,0.6-2,0.5c-5.5-1-11.1-1.5-16.6-2c-7.7-0.7-15.3-0.8-23,0.1c-2,0.2-3.7,0.9-5.2,2.1c-10.3,8.4-19.9,17.5-29.1,27.2
	c-0.6,0.6-1,1.5-1.4,2.2c1.1,1.5,2.2,0.8,3.2,0.5c7-2.4,14-4.3,21.3-5.7c7.6-1.4,15.2-1.7,22.9-2.2c3-0.2,6,0.6,9.1,0.6
	c5.8,0.1,11.4,1,17.1,2.1c15.2,3,29.4,8.6,42.6,16.7c0.8,0.5,1.4,1.1,2.1,1.6c-1.2,0.2-2-0.1-2.8-0.6c-5.3-3.2-10.8-6.2-16.6-8.6
	c-10.5-4.5-21.3-7.8-32.7-9.1c-4-0.5-7.9-0.9-11.9-1.1c-3.3-0.2-6.7-0.5-10-0.4c-4.9,0.3-9.8,0.9-14.8,1.5
	c-10.7,1.2-20.9,4.3-30.9,8.2c-2.9,1.1-5.4,2.7-7.4,5.1c-5.2,6.1-10.5,12-15.8,18.1c-0.7,0.8-1.4,1.7-2,2.7
	c-0.4,0.5-0.4,1.2,0.4,1.5c0.3-0.1,0.7,0,0.9-0.2c2.1-1.4,4.2-2.9,6.3-4.3c17.5-12.2,37-18.7,58.1-20.5c8.8-0.7,17.6-0.5,26.3,1
	c14,2.3,27.3,6.7,39.6,13.7c20.6,11.6,36.4,27.9,47.4,48.9c6.4,12.3,10.5,25.4,12.2,39.1c0.7,5.7,0.9,11.5,1.1,17.2
	c0.1,2.9-0.6,5.7-0.6,8.6c0,7.9-1.1,15.6-2.3,23.3c-3.3,20-9.4,39.1-18.3,57.3c-11.4,23.4-26.8,43.8-45.8,61.6
	c-14.7,13.7-31.1,25.1-49.1,34.1c-15.6,7.8-32,13.6-49.2,17.1c-6.4,1.3-12.9,2.3-19.4,3.2c-4.1,0.6-8.3,0.7-12.4,1.1
	c-0.6,0.1-1.2,0.4-1.7,0.8c-0.1,0.1-0.2,0.7,0,0.8c0.5,0.4,1.1,0.8,1.6,0.8c4,0.4,8,0.9,11.9,0.9c4.1,0,8.3-0.5,12.4-0.7
	c8-0.3,15.9-1.8,23.6-3.5c21.1-4.6,40.9-12.6,59.8-22.7c1.8-1,3.6-2.1,5.3-3.3c20.1-14,37.6-30.7,52.2-50.4c0.7-1,1.5-1.9,2.3-2.8
	c0.1,2.2-1.3,3.5-2.4,5c-1.1,1.6-2.3,3-3.5,4.5c-1.1,1.4-2.2,2.8-3.3,4.1c-1.2,1.5-2.5,2.9-3.8,4.3c-1.3,1.4-2.6,2.8-3.8,4.3
	c-1.1,1.4-2.8,2.5-3.1,4.6c1.8,0.2,2.6-1,3.4-1.9c4.6-4.9,9.3-9.7,13.6-14.8c16.6-20.1,28.3-42.8,36.2-67.7
	c3.1-9.8,5.6-19.7,7.1-29.8c0.1-0.8,0.7-1.9-0.7-2.4c-1.2,1.5-0.9,3.3-1.3,5c-0.5,1.9-0.9,3.7-1.4,5.6c-0.4,1.7-0.8,3.4-1.2,5.1
	c-0.5,1.9-1,3.7-1.5,5.5c-0.5,1.7-1,3.4-1.5,5.1c-0.6,1.8-1.2,3.7-1.8,5.5c-0.6,1.7-1.1,3.3-1.7,5c-0.7,1.8-1.4,3.6-2.1,5.4
	c-0.6,1.6-1.2,3.3-2,4.9c-0.8,1.6-1,3.6-3.4,5.6c0.8-2.2,1.2-3.4,1.6-4.5c2-5.2,4.2-10.4,6-15.7c4.4-12.5,7.5-25.4,9.4-38.6
	c1.4-9.3,2.5-18.7,2.2-28.1c-0.1-2.2,0-4.5,0-6.7c0.2-11-1.6-21.6-4.5-32.2c-4.8-17.5-12.9-33.3-24.5-47.4c-0.4-0.5-1.3-1-0.5-2.2
	c1.1,1.2,2.3,2.3,3.2,3.6c4.3,5.6,8.3,11.4,11.5,17.6c2.2,4.4,4.2,9,6.4,13.4C451.6,443.5,451.7,445,453.9,445.5L453.9,445.5z
	 M187.7,584.7c-1.2,3.3-0.2,6.4,0.1,9.5c0.2,1.8,1.1,3,2.6,3.6c2.9,1.2,5.9,2.4,8.9,3.6c0.9,0.4,2.3,0.2,2.9,1.9
	c-0.9-0.2-1.7-0.2-2.4-0.5c-2.7-1-5.4-2.1-8-3.1c-1-0.4-2.1-0.8-3.3,0.4c-0.9,2.5,0.3,5.2,0.3,7.8c0,2.4,1.2,3.9,3.4,4.6
	c1.1,0.4,2.1,0.8,3.1,1.2c11.6,4.3,23.7,6.4,36,7.4c10.1,0.8,20.1-0.2,30-1.9c1.2-0.2,2.3-0.8,3.8-1.4c-0.5-0.8-0.6-1.6-1.1-1.8
	c-5.5-2.7-10.3-7-16.9-7.6c0-1.8-0.9-3-2.2-4c-2.8-2.1-5.6-4.3-8.3-6.5c-1.2-0.9-2.4-1.6-3.9-1.7c-1.7-0.2-3.5-0.4-5.2-0.7
	c-3.6-0.5-7.3-0.9-10.9-1.7c-8.3-1.7-16.3-4.5-23.9-8.2C191.3,585.3,189.9,584.2,187.7,584.7L187.7,584.7z M361.4,610.4
	c1.3,0.8,2.4,0.3,3.6-0.2c5.2-2,10.1-4.7,15-7.5c3.4-2,6-4.6,8.2-7.8c16.3-23.7,26.4-49.8,30.5-78.3c0.2-1.7,0.5-3.6,0-5.2
	c-1.7-6.4-4.1-12.4-7.5-18.1c-0.3-0.5-1.2-0.8-2-1.3c-0.3,1-0.6,1.5-0.7,2.1c-0.3,4.1-0.7,8.3-0.9,12.4c-0.3,7.2-1.6,14.3-3.1,21.3
	c-4.4,20-12,38.7-23.2,55.9c-5.3,8.2-11.3,15.9-17.9,23.1C362.8,607.8,361.5,608.7,361.4,610.4L361.4,610.4z M340.4,321.6
	c3.3,0.5,6.2,1,9.2,1.3c11.5,1.2,22.6,3.7,33.6,7.3c12.6,4.2,24.6,9.8,35.9,16.8c1.1,0.7,2.2,1.2,3.4,1.8c0.5,0.2,1.4-0.5,1.3-1
	c-0.1-0.6-0.2-1.3-0.5-1.8c-4.2-8.5-9.1-16.5-15.9-23.2c-10.8-10.8-23.8-14.2-38.6-12.8c-0.3,0-0.6,0.1-0.9,0.2
	c-0.9,0.3-1.3,0.8-0.8,2.1c1.3,0.4,2.8,0.8,4.4,1.2c10.3,2.3,20.2,5.8,30,9.8c0.6,0.2,1.6,0.4,1.1,1.8c-0.8-0.3-1.5-0.5-2.2-0.8
	c-11.6-5-23.7-8.6-36.1-11c-3.9-0.8-7.6-0.8-11.2,0.9c-3.2,1.4-6.4,2.8-9.6,4.2c-0.9,0.4-1.7,0.9-2.4,1.5
	C340.7,320.1,340.7,320.8,340.4,321.6L340.4,321.6z M286.2,625.6c-0.8-0.8-1.3-1.5-1.9-1.7c-4.2-1.5-8.4-3-12.7-4.3
	c-1-0.3-2.2-0.3-3.3-0.2c-1.6,0.2-3.1,0.6-4.7,0.9c-6.4,1.3-12.9,2-19.5,2.3c-6.2,0.3-12.4,0.1-18.6-0.6
	c-10.1-1.1-19.8-3.2-29.4-6.4c-1.4-0.5-2.7-1-4.1-1.3c-1.5-0.4-2.7,0.4-2.6,1.9c0.1,2.7,0.3,5.4,0.8,8.1c0.1,0.8,1,1.7,1.7,2.1
	c1.6,0.8,3.2,1.3,4.9,1.8c7.8,2.3,15.8,4,23.8,5.1c6.2,0.9,12.4,1,18.6,1.2c6.7,0.1,13.4-0.7,20-1.5c8.1-1,16-3,23.7-5.6
	C284,626.9,284.9,626.3,286.2,625.6L286.2,625.6z M172.8,551.6c0.2-0.7,0.5-1.3,0.4-1.9c-0.7-5.4-1.4-10.8-2.4-16.1
	c-0.3-1.7-1-3.4-1.8-4.9c-6-11.7-9.5-24.1-9-37.3c0.3-8.7-0.6-17.2-3.1-25.5c-0.6-2-1.1-4-1.7-6c-0.4-1.2-0.8-2.5-1.3-3.6
	c-0.2-0.4-0.9-0.6-1.8-1.1c-0.6,1.9-1.1,3.3-1.4,4.9c-1.5,8.8-2.5,17.7-2.8,26.6c-0.6,14.8,2.1,28.9,8.2,42.4
	c3.3,7.5,7.8,14.3,13,20.6C169.9,550.7,170.7,551.8,172.8,551.6L172.8,551.6z M196,572.7c0.2-0.2,0.4-0.5,0.6-0.7
	c1.4,0.7,2.8,1.4,4.3,2c4,1.6,8.1,3,12.1,4.5c0.7,0.3,1.5,0.4,2.3,0.5c0.8,0.1,1.4-0.9,1.1-1.7c-0.2-0.4-0.4-0.9-0.6-1.3
	c-2.1-3.2-4.2-6.4-6.3-9.6c-0.9-1.4-2.1-2.4-3.6-3.1c-6.9-3.1-13.1-7.2-18.9-12.1c-0.7-0.6-1.6-0.8-2.5-1.2
	c-0.4,0.7-0.8,1.1-0.7,1.5c0.2,2.9,0.4,5.7,0.7,8.6c0.5,4.6,1.2,9.2,1.5,13.8c0.4,7.6,0.2,7.4,7.6,11.1c9.8,4.8,20.2,7.8,31,9.4
	c1.8,0.3,3.7,0.7,5.7-0.5c-0.2-0.7-0.2-1.4-0.6-1.8c-3.1-3.4-6.2-6.8-9.5-10.2c-0.6-0.6-1.6-1.1-2.5-1.2c-6.9-0.9-13.1-3.8-19.4-6.6
	C197.5,573.8,196.8,573.2,196,572.7L196,572.7z M322.9,308.3c2,0.2,3.1,0.4,4.2,0.4c3,0,6.1,0,9.1,0c2.3,0.1,4.4-0.4,6.5-1.3
	c5-2.2,10-4.2,15.3-5.5c1-0.3,1.9-0.9,3.1-1.5c-1.8-4.5-3.5-8.8-5.2-13c-0.7-1.7-2.2-2.2-3.9-2.4c-3.8-0.4-7.6-0.7-11.4-1
	c-2.2-0.1-4.5-0.1-6.7,0c-1.2,0-2.2,0.7-2.5,1.9c-0.7,2.9-1.8,5.8-0.9,9.3c4,1.7,8.6,0.2,12.7,1.6c-0.6,0.4-1.1,0.5-1.7,0.5
	c-2.6-0.1-5.1-0.3-7.6-0.4c-3.1-0.2-3.9,0.2-5.2,3c-0.9,2.1-2.1,3.9-3.7,5.5C324.2,306,323.8,306.8,322.9,308.3L322.9,308.3z
	 M419.8,521.5c-0.7,1.7-1.1,3.5-1.5,5.3c-3.9,20.2-11.2,39.2-21.5,57c-1.1,1.9-2.3,3.8-3.4,5.8c-0.2,0.5-0.2,1.1-0.3,2.3
	c1.4-0.8,2.3-1.2,2.8-1.8c3-3.3,6.2-6.5,8.9-10c10.3-13.7,17.1-28.8,17.3-46.2c0-3.3-0.1-6.7-0.3-10
	C421.7,522.9,421.6,521.6,419.8,521.5L419.8,521.5z M353.2,282.9c0.7-2.1-0.4-3.8-1-5.5c-2-5.8-2.2-5.9-8.1-6.1
	c-1.6,0-3.2-0.2-4.8-0.3c-0.9-0.1-1.9-0.2-2.9-0.1c-1.9,0.1-2.9,0.9-3.3,2.9c-0.4,2-0.7,4.1-1,6.1c-0.2,1.4,0.7,2.4,2.1,2.7
	c0.8,0.1,1.6,0.1,2.4,0.2c3.6,0.3,7.3,0.6,11,0.8C349.5,283.6,351.5,284.1,353.2,282.9L353.2,282.9z M341.9,250.2c-1,0-1.8,0-2.5,0
	c-1.3,0.1-2.1,0.8-2.3,2c-0.9,5-1.7,10-2.4,15.1c-0.2,1.3,0.5,2.2,1.8,2.4c3.9,0.5,7.9,0.8,11.9,0c0.1-0.8,0.3-1.5,0.1-2
	C346.5,261.8,344.6,255.9,341.9,250.2L341.9,250.2z M168.2,520.6c0.1-1.3,0.2-2,0.1-2.8c-1-5.5-2.1-10.9-3.2-16.4
	c-0.5-2.5-1-5-1.6-7.4c-0.2-0.6-0.9-1-1.5-1.7c-0.4,0.8-0.7,1.2-0.7,1.6c-0.1,1.6-0.2,3.2,0,4.8c0.8,5.5,1.6,11,3.4,16.3
	c0.5,1.5,1,3,1.7,4.4C166.6,519.8,167.3,520,168.2,520.6L168.2,520.6z M232.8,407.1c-0.6,0.3-1.2,0.3-1.4,0.6c-3.7,4-6.9,8.3-9.7,13
	c-0.4,0.8-1.3,1.4-0.8,2.5c0.3,0,0.7,0.1,0.8-0.1c3.7-4.8,7.3-9.6,10.9-14.5C232.8,408.3,232.8,407.7,232.8,407.1z"/>
<path class="st0" d="M776.1,608.1c0,15.2,0,30.4,0,45.6c0,0.5,0,1,0,1.4c0,4.7-0.2,4.8-4.9,4.9c-4,0-8-0.1-12,0
	c-2.9,0.1-4.3-1.1-5.4-3.7c-4.1-10.4-8.4-20.7-12.6-31.1c-1.3-3.3-2.7-6.5-4-9.8c-0.4-0.9-0.8-1.8-2-1.9c-0.7-0.1-1.3,1-1.4,2.7
	c-0.1,3,0,6.1,0,9.1c0,10.1,0,20.1,0,30.2c0,4-0.3,4.3-4.4,4.3c-5,0-9.9,0-14.9,0c-2.2,0-2.8-0.7-2.9-2.9c-0.1-1,0-1.9,0-2.9
	c0-31,0-62,0-93c0-1.3,0-2.6,0.1-3.8c0.1-1.1,0.8-1.7,1.9-1.8c0.6-0.1,1.3-0.1,1.9-0.1c4.3,0,8.6,0.1,13,0c2.4-0.1,3.8,0.9,4.7,3.2
	c2.1,5.4,4.3,10.7,6.5,16c3.4,8.3,6.8,16.6,10.2,24.8c0.5,1.1,0.7,2.6,2.2,2.8c0.9,0.1,1.6-1.2,1.6-3.6c0-12.2,0-24.3,0-36.5
	c0-1.4,0-2.9,0.1-4.3c0.1-1.6,0.9-2.3,2.5-2.3c5.8-0.1,11.5-0.1,17.3,0c1.6,0,2.3,0.8,2.4,2.4c0.1,1.3,0.1,2.6,0.1,3.8
	C776.1,577.1,776.1,592.6,776.1,608.1L776.1,608.1z"/>
<path class="st0" d="M873.9,460.1c0,15.5,0,31,0,46.5c0,3.7-1.9,5.5-5.6,5.6c-3.8,0-7.7-0.1-11.5,0c-2.7,0.1-4.1-1.1-5-3.5
	c-3.5-8.9-7.2-17.8-10.8-26.7c-1.7-4.1-3.3-8.3-5.1-12.4c-0.5-1.2-1.1-2.3-1.8-3.4c-0.2-0.3-0.9-0.5-1.2-0.4
	c-0.4,0.1-0.9,0.6-0.9,0.9c-0.2,1.3-0.3,2.5-0.3,3.8c0,7,0,14.1,0,21.1c0,5,0,9.9,0,14.9c0,1.1,0,2.2-0.1,3.3
	c-0.1,1.3-0.8,1.9-2.2,2.1c-0.3,0-0.6,0.1-1,0.1c-5.3,0-10.5,0-15.8,0c-2.5,0-3-0.7-3.2-3.2c0-1,0-1.9,0-2.9c0-30.9,0-61.7,0-92.6
	c0-4,2-6,6.1-6c3.7,0,7.4,0.1,11,0c2.2-0.1,3.6,0.9,4.4,3c2.1,5.4,4.3,10.7,6.5,16c3.2,7.8,6.4,15.7,9.6,23.5c0.5,1.2,1,2.4,1.6,3.5
	c0.3,0.4,1.1,0.9,1.5,0.8c0.5-0.1,1-0.8,1.1-1.4c0.2-1.6,0.3-3.2,0.3-4.8c0-11.5,0-23,0-34.5c0-4,1.9-6,5.7-6c4.5,0,9,0,13.4,0
	c2.5,0,3,0.7,3.2,3.2c0,1,0,1.9,0,2.9C874,429.1,874,444.6,873.9,460.1L873.9,460.1z"/>
<path class="st0" d="M634.5,457.3c1.3,0.9,1.9,1.4,2.6,1.7c6.7,3.3,9.5,9.2,10.5,16.1c0.4,3,0.3,6.1,0.3,9.1
	c0.1,6.2-0.3,12.5,0.6,18.7c0.3,2,0.7,4.1,1,6.1c0.1,0.8,0.3,1.5,0.4,2.5c-1,0.2-1.7,0.5-2.4,0.5c-6.1,0-12.1,0.1-18.2,0
	c-3,0-4-0.8-4.6-3.8c-0.4-1.9-0.4-3.8-0.5-5.7c-0.1-6.5,0-13.1-0.1-19.7c0-2.4-0.3-4.8-0.8-7.1c-1.1-5.5-6-8.6-11.4-7.5
	c-1.2,0.3-2.1,1-2.3,2.2c-0.2,1.6-0.4,3.2-0.4,4.8c0,10.1,0,20.1,0,30.2c0,6.7,0,6.7-6.5,6.7c-4.2,0-8.3,0-12.5,0
	c-3.6,0-5.5-1.9-5.5-5.7c0-0.2,0-0.3,0-0.5c0-30.8,0-61.7,0-92.5c0-5.9,0-5.9,5.7-6c10.5,0,21.1,0.1,31.6,0c3.2,0,6.4,0.5,9.5,1.2
	c8.1,2.1,14.4,7.7,15.7,18.4c0.4,3.5,0.3,7,0.2,10.5c-0.1,7.7-3.4,13.5-10.1,17.3C636.7,455.5,635.9,456.2,634.5,457.3L634.5,457.3z
	 M609.5,438.3c0,0-0.1,0-0.1,0c0,1.8,0,3.5,0,5.3c-0.1,6.5,1.4,6.3,6.8,6c3.5-0.2,6-2.2,7-5.6c1.1-3.7,1.1-7.6,0-11.3
	c-0.7-2.3-2.1-4-4.4-4.7c-1.8-0.5-3.8-0.8-5.6-0.8c-2.4-0.1-3.5,1-3.6,3.5C609.4,433.2,609.5,435.8,609.5,438.3L609.5,438.3z"/>
<path class="st0" d="M632.1,605.6c1.1,0.7,2,1.3,3,1.8c3.7,2,6.1,5.1,7.6,8.9c1.3,3.1,2.1,6.3,2.1,9.8c0,5.9,0.1,11.8,0,17.8
	c0,4.2,0.4,8.3,1.3,12.4c0.1,0.6,0.3,1.2,0.3,1.9c0,0.9-0.5,1.5-1.4,1.7c-0.6,0.1-1.3,0.2-1.9,0.2c-5.6,0-11.2,0.1-16.8,0
	c-3.2,0-4.4-1-4.8-4.1c-0.3-2.2-0.4-4.5-0.4-6.7c0-5.4,0-10.9-0.1-16.3c-0.1-2.9-0.3-5.8-0.7-8.6c-0.9-5.8-5.7-9.2-11.5-8.1
	c-1.4,0.3-2.3,1-2.5,2.5c-0.2,1.4-0.2,2.9-0.2,4.3c0,10.5,0,21.1,0,31.7c0,5.2-0.1,5.4-5.3,5.4c-5.3,0-10.5,0-15.8,0
	c-2.5,0-3.1-0.7-3.2-3.2c-0.1-1,0-1.9,0-2.9c0-30.9,0-61.7,0-92.6c0-4,2.1-6,6.2-6c10.2,0,20.5,0.1,30.7,0c3.2,0,6.4,0.5,9.5,1.2
	c9.3,2.2,14.7,8.4,16,17.6c0.7,4.8,0.5,9.9,0,14.8c-0.6,5.9-3.9,10.4-9.1,13.4C634,602.9,632.5,603.4,632.1,605.6L632.1,605.6z
	 M606.5,585.9C606.5,585.9,606.4,585.9,606.5,585.9c-0.1,2.2-0.1,4.5-0.1,6.7c0.1,4.4,0.8,5,5,4.9c0.5,0,1,0,1.4,0
	c4.3-0.4,7.1-3,7.6-7.2c0.3-2.7,0.2-5.4,0-8.1c-0.2-2.7-1.5-5-4.1-6c-2-0.7-4.3-1-6.5-1s-3.2,1-3.3,3.2
	C606.3,580.8,606.4,583.3,606.5,585.9L606.5,585.9z"/>
<path class="st0" d="M564,484c0,7.4,0,14.7,0,22c0,1.1,0,2.2,0,3.3c-0.1,1.9-0.8,2.6-2.6,2.7c-1,0.1-1.9,0-2.9,0.1
	c-2.7,0.3-4.6-0.7-5.7-3.3c-0.4-0.9-0.9-1.7-1.4-2.5c-0.9-1.3-2-1.4-3.2-0.3c-0.9,0.7-1.6,1.5-2.5,2.2c-4.4,3.7-9.5,5.8-15.3,5.9
	c-3.5,0-7,0.1-10.5-0.8c-5.8-1.6-10.3-4.9-13.4-10.1c-2.7-4.5-4.1-9.4-4.8-14.5c-0.8-5.5-1.1-11.1-1.1-16.7c0.1-10.2,0-20.5,0-30.7
	c0-5,0.8-9.9,1.9-14.7c0.4-1.5,0.9-3.1,1.4-4.6c2.7-7.6,8-12.5,15.7-15c3.2-1,6.5-1.7,9.9-1.7c4.6,0,9.2-0.1,13.8,1
	c9.1,2.3,15.2,7.8,18.1,16.7c1.9,5.7,2.3,11.6,2.6,17.5c0.1,2.5-0.6,3.2-3,3.3c-6.1,0.1-12.1,0.1-18.2,0c-2.2,0-2.8-0.8-3-2.9
	c-0.3-2.5-0.5-5.1-0.8-7.6c-0.2-1.8-0.8-3.4-2.2-4.7c-3.2-3.1-8.6-2.1-10.3,2.1c-0.8,2-1.1,4.3-1.4,6.5c-0.2,1.2-0.1,2.5-0.1,3.8
	c0,12.6,0,25.2,0,37.9c0,2.9,0.3,5.7,0.9,8.6c0.7,3.8,3,5.8,6.4,6.1c3.9,0.4,7.1-1.4,8.5-4.8c0.6-1.5,0.9-3.1,1.1-4.6
	c0.2-1.4,0.1-2.9,0.1-4.3c0-5.3,0-6.4-5.6-6.2c-2.4,0.1-3.2-0.7-3.2-3.2c-0.1-4-0.1-8,0-12c0.1-2.3,0.9-3,3.4-3.1
	c8.2-0.1,16.3-0.1,24.5,0c2.5,0,3.2,0.7,3.2,3.1c0.1,3.4,0,6.7,0,10.1C564.1,473.8,564.1,479,564,484L564,484z"/>
<path class="st0" d="M502.3,607.6c0-15.5,0-31,0-46.5c0-0.2,0-0.3,0-0.5c0-5.2,0.1-5.4,5.4-5.4c10.5,0,21.1,0,31.6,0
	c4.3,0,8.6,0.8,12.6,2.5c5.4,2.3,9.2,6.2,11.2,11.8c1.1,3,1.9,6.1,1.9,9.3c0,5.8,0,11.5,0,17.2c-0.1,4-1.1,7.9-3,11.5
	c-4.1,7.8-11,11.2-19.5,12c-2.9,0.2-5.8,0.1-8.6,0.2c-1.3,0-2.6,0-3.8,0.1c-2.3,0.2-3.1,1-3.3,3.3c-0.1,1.3-0.1,2.5-0.1,3.8
	c0,9.1,0,18.2,0,27.3c0,5.6,0,5.6-5.6,5.6c-5.1,0-10.2,0-15.3,0c-2.8,0-3.3-0.7-3.5-3.4c0-0.8,0-1.6,0-2.4
	C502.4,638.6,502.4,623.1,502.3,607.6L502.3,607.6z M526.8,587.6L526.8,587.6c0,3-0.1,6,0,9.1c0.1,1.9,0.8,2.9,2.4,3.1
	c5.5,0.7,11.1-1,11.6-8c0.2-3.2,0.2-6.4,0-9.5c-0.2-2.7-1.4-4.9-4-6.1c-2.2-1-4.5-1.4-7-1.2c-1.9,0.2-2.9,1.1-3,3.1
	C526.7,581.3,526.8,584.5,526.8,587.6L526.8,587.6z"/>
<path class="st0" d="M667.5,459.7c0-15.5,0-31,0-46.5c0-5.6,0-5.6,5.6-5.6c13.6,0,27.2,0,40.8,0c0.5,0,1,0,1.4,0
	c4,0.1,4.3,0.4,4.4,4.5c0,4.5,0.1,9,0,13.4c-0.1,2.8-0.7,3.5-3.4,3.5c-3.8,0.1-7.7,0-11.5,0.1c-2.9,0-5.8-0.1-8.6,0.1
	c-3.2,0.2-4,1-4.1,4.1c-0.1,4-0.2,8,0,12c0.1,3.6,1,4.3,4.8,4.4c5,0.1,9.9,0,14.9,0c4.9,0,5.1,0.2,5.1,5.2c0,3.5,0.1,7,0,10.5
	c-0.1,3.3-0.6,3.8-4,3.9c-4.3,0.1-8.6,0-13,0c-1.4,0-2.9,0-4.3,0.1c-2.3,0.2-3.1,1-3.4,3.3c-0.2,1.4-0.1,2.9-0.1,4.3
	c0,2.9-0.1,5.8,0,8.6c0.1,4.2,0.8,4.9,5.2,5c3.5,0.1,7,0,10.5,0c3,0,6.1,0,9.1,0.1c2.1,0.1,2.9,0.9,3,3c0.1,5.1,0.1,10.2,0,15.3
	c0,2.2-0.8,2.8-3,3c-1,0.1-1.9,0-2.9,0c-13.6,0-27.2,0-40.8,0c-5.7,0-5.7,0-5.7-5.5C667.5,491,667.5,475.3,667.5,459.7L667.5,459.7z
	"/>
<path class="st0" d="M738.5,459.9c0-15.5,0-31,0-46.5c0-5.9,0-5.9,5.8-5.9c13.6,0,27.2,0,40.8,0c5.5,0,5.5,0,5.6,5.7c0,4,0,8,0,12
	c-0.1,3-0.7,3.7-3.7,3.8c-5.6,0.1-11.2,0-16.8,0.1c-1.4,0-2.9,0-4.3,0.2c-1.8,0.2-2.7,1.1-2.8,2.8c-0.1,4.8-0.2,9.6,0,14.4
	c0.1,2.2,1.1,3,3.5,3.1c1.4,0.1,2.9,0.1,4.3,0.1c4.5,0,9,0,13.4,0c2.6,0,3.3,0.6,3.3,3c0.1,4.5,0.1,9,0,13.4c0,2.4-0.8,3.1-3.3,3.1
	c-4.5,0.1-9,0-13.4,0.1c-1.6,0-3.2,0-4.8,0.2c-2,0.2-2.8,1-3.1,3c-0.1,0.6-0.1,1.3-0.1,1.9c0,3.7,0,7.4,0,11c0,0.8,0,1.6,0.2,2.4
	c0.3,1.7,1.1,2.5,2.9,2.7c1.3,0.2,2.5,0.2,3.8,0.2c5,0,9.9,0,14.9,0c1.1,0,2.2,0,3.3,0.1c1.8,0.2,2.7,1,2.7,2.8
	c0.1,5.3,0.1,10.6,0,15.8c0,1.9-0.9,2.5-2.7,2.7c-1,0.1-1.9,0.1-2.9,0.1c-13.8,0-27.5,0-41.2,0c-5.3,0-5.4-0.1-5.4-5.3
	C738.5,491.2,738.5,475.6,738.5,459.9L738.5,459.9L738.5,459.9z"/>
<path class="st0" d="M811.4,618.9c0-10.7,0-21.4,0-32.1c0-1.1,0-2.2,0-3.4c-0.1-5.7-0.2-5.9-6-5.9c-3.7,0-7.3,0-11,0
	c-2.2,0-2.9-0.7-3-2.9c-0.1-5.4-0.1-10.9,0-16.3c0-2.2,0.7-2.7,3-2.9c1-0.1,1.9,0,2.9,0c17.6,0,35.2,0,52.7,0c5.6,0,5.6,0,5.7,5.5
	c0,4.5,0,9,0,13.4c0,2.5-0.7,3.1-3.2,3.2c-3.5,0.1-7,0-10.5,0c-1.3,0-2.6,0-3.8,0.2c-1.1,0.1-1.8,0.8-2,1.8
	c-0.2,1.4-0.4,2.8-0.4,4.3c0,7.8,0,15.7,0,23.5c0,15.7,0,31.3,0,47c0,0.5,0,1,0,1.4c-0.1,4-0.4,4.3-4.5,4.4c-5.6,0-11.2,0-16.8,0
	c-2.5,0-3-0.7-3.2-3.2c0-0.8,0-1.6,0-2.4C811.4,642.5,811.4,630.7,811.4,618.9L811.4,618.9L811.4,618.9z"/>
<path class="st0" d="M664.5,607.1c0-15.3,0-30.7,0-46c0-0.5,0-1,0-1.4c0.1-3.9,0.4-4.3,4.5-4.4c5.6,0,11.2,0,16.8,0
	c2.5,0,3,0.7,3.2,3.2c0,0.8,0,1.6,0,2.4c0,31.2,0,62.3,0,93.5c0,5.5,0,5.6-5.6,5.6c-5.1,0-10.2,0-15.3,0c-2.8,0-3.3-0.7-3.4-3.5
	c0-0.8,0-1.6,0-2.4C664.5,638.4,664.5,622.8,664.5,607.1L664.5,607.1z"/>
<path class="st0" d="M548,319.1c-1.5-1.6-3.4-1.5-5.3-1.6c-7.4-0.4-14.7,0.7-21.9,2.3c-3.1,0.7-6.2,1.5-9.3,2.4
	c-1.4,0.4-2.6,1.1-4,1.6c-1.5,0.5-1.5,1.8-1.7,3.3c-0.6,0-1.3,0.1-1.9,0c-2-0.4-2.5-1-2.4-2.9c0.1-6.5,3.6-11.7,9.7-14
	c2.7-1,5.5-1.5,8.4-2.1c7.9-1.7,15.9-1.8,23.9-1.4c1.2,0,2.5,0.5,3.7,0.8c0.6,0.2,1.2,0.5,1.7,0.9c2.2,2.3,2.6,5.4,3.5,8.3
	c0.5,1.8-0.4,3.4-1.5,4.9c-6.9,9.3-12.5,19.4-18,29.5c-1.1,2.1-2.6,4.1-1.9,6.7c0.1,0.4-0.1,1-0.3,1.4c-1.4,2.4-2.7,4.7-4.2,7
	c-0.3,0.5-0.9,0.9-1.4,1.3c-0.9,0.8-2,1-3.1,0.4c-1.1-0.6-1.5-1.8-1.1-2.9c1-3,1.9-6.1,3.3-9c3.9-7.9,8.8-15.2,13.9-22.4
	c2.7-3.8,5.5-7.4,8.3-11.1C547.2,321.5,548.1,320.6,548,319.1L548,319.1z"/>
<path class="st0" d="M580.1,355.3c-1.8,2.8-4.1,5.1-6.8,7.1c-1,0.7-2.2,1.3-3.4,1.7c-1.5,0.6-2.9-0.3-3.2-1.9
	c-0.4-2.3-0.1-4.5,0.9-6.5c1.3-2.6,2.8-5,4.1-7.6c0.6-1.2,1.9-2.2,1.4-4.2c-0.5,0-1.2-0.1-1.6,0.2c-1.9,1.5-3.9,2.9-5.5,4.6
	c-3.3,3.7-6.4,7.6-9.6,11.3c-0.9,1.1-1.7,2.7-3.4,2.2c-2-0.6-1.8-2.5-1.8-4c-0.1-2.2-0.1-4.5,0.1-6.7c0.2-2.3-0.2-4.4-1.7-6.3
	c-0.9-1.2-1.6-2.6-2.3-3.8c0.6-1.3,1.5-1.1,2.2-1.2c1.4-0.1,2.9-0.1,4.3-0.1c1.7,0,3.1-0.8,4-2.2c1-1.4,1.9-2.9,3-4.3
	c4.8-6.5,9.6-13.1,14.6-19.6c1.5-2,3.4-3.8,5.3-5.5c1.2-1.1,1.6-1,3.9,0.1c-0.2,2.1-1.5,3.8-2.7,5.5c-5.1,7.2-10.2,14.3-15.3,21.4
	c-0.7,0.9-1.3,1.8-2.1,2.9c0.4,0.8,0.8,1.6,1.2,2.5c-0.2,0.2-0.3,0.6-0.5,0.7c-2.2,1.5-4.5,3.1-6.7,4.6c-3.1,2-3.9,4.8-2.6,8.5
	c0.9-0.5,1.9-0.7,2.5-1.3c2-1.9,3.8-3.9,5.7-5.8c2.6-2.6,5.3-5.1,8-7.6c1.2-1.1,2.5-2,3.9-2.8c1.4-0.9,2.6-0.7,3.5,0.1
	c1,1,1.1,2.3,0,3.9c-0.8,1.2-1.8,2.3-2.6,3.4c-1.4,1.9-2.9,3.8-4,5.9c-0.7,1.2-1,2.7-1.1,4.1c-0.2,2,1.6,3.4,3.5,2.8
	C577,356.9,578.6,356,580.1,355.3L580.1,355.3z"/>
<path class="st0" d="M612.6,354.2c-3.1,4.5-6.9,7.9-10.3,9.6c-0.7,0.4-1.5,0.6-2.2,0.9c-5.8,2.2-10.3-1.4-11-7
	c-0.7-5.5,0.5-10.5,4.5-14.5c3.5-3.5,6.9-7.2,11.8-8.7c1.6-0.5,3.4-0.8,5.1-0.8c1.6,0,2.7,1.2,2.6,2.8c-0.1,1.2-0.4,2.5-0.9,3.6
	c-0.9,2.1-2.5,3.7-4.5,4.9c-3.3,2-6.6,3.9-10,5.7c-1.4,0.8-3.1,1.3-3.1,3.2c0,2.4,0.8,4.4,3,5.6c1.5,0.8,3.1,1.1,4.6,0.5
	c2.2-0.9,4.4-1.9,6.5-3C609.8,356.3,610.9,355.4,612.6,354.2L612.6,354.2z M595.2,349.8c1.2-0.1,2.2,0.2,3-0.2
	c3.9-1.7,7-4.3,9.4-7.9c0.5-0.8,0.8-1.7,1.1-2.6c0.3-1.3-1-2.5-2.4-2.2c-0.3,0.1-0.6,0.1-0.9,0.3c-4.4,2.2-7.9,5.3-9.7,10
	C595.3,347.9,595.3,348.7,595.2,349.8z"/>
<path class="st0" d="M458.9,604.8c-4.8,14.6-33,52.7-47.9,64.8c-0.9-0.6-0.1-1.1,0.2-1.5c1.3-1.4,2.7-2.8,4-4.1
	c15.7-15.9,28.8-33.7,39.6-53.2c0.9-1.7,1.9-3.3,2.8-5C458,605.4,458.4,605.2,458.9,604.8L458.9,604.8z"/>
<path class="st0" d="M333.7,720.1c2.6-2,5.2-2.5,7.4-3.7c2.2-1.2,4.6-2.2,6.9-3.4c2.3-1.1,4.6-2.3,6.8-3.5s4.5-2.4,6.7-3.7
	c2.2-1.3,4.4-2.6,6.6-3.9c2.2-1.3,4.3-2.7,6.5-4.1c2.1-1.3,4-3,7.2-4.4c-1.3,2.2-2.7,2.9-4,3.7c-13.3,8.9-27.2,16.6-41.9,22.9
	C335.4,720.2,335,720.1,333.7,720.1L333.7,720.1z"/>
<path class="st0" d="M451.5,356.5c-4.5-3.7-9-7.5-13.5-11.2c-0.1,0,0-0.3,0.1-0.4C441.7,346.5,447.9,351.4,451.5,356.5z"/>
<path class="st0" d="M232.9,407.1c-0.1,0.7,0,1.2-0.2,1.5c-3.6,4.9-7.2,9.7-10.9,14.5c-0.1,0.1-0.6,0.1-0.8,0.1
	c-0.5-1.1,0.4-1.8,0.8-2.5c2.8-4.6,6-9,9.7-13C231.7,407.4,232.2,407.3,232.9,407.1z"/>
<path class="st0" d="M595.2,349.8c0.2-1.1,0.1-1.9,0.4-2.6c1.8-4.7,5.3-7.8,9.7-10c0.3-0.1,0.6-0.2,0.9-0.3c1.3-0.3,2.7,0.9,2.4,2.2
	c-0.2,0.9-0.6,1.8-1.1,2.6c-2.3,3.6-5.5,6.2-9.4,7.9C597.4,350,596.4,349.8,595.2,349.8z"/>
<path class="st0" d="M295.7,421.8c-0.8,0.5-1.5,1-2.3,1.4c-17.2,9.4-29.4,23.3-36.4,41.7c-3,8-4.7,16.3-4.8,24.8
	c0,1.6,0,3.2-0.4,4.8c-1.6,6-5.6,9.6-11.6,10.7c-4,0.7-7.6-0.9-10.6-3.4c-3-2.5-4.2-5.6-4-10.4c0.6,1.9,0.9,3,1.3,4.2
	c2,5.4,7.4,9.1,12.6,8.5c5.9-0.6,10.7-5.2,11.5-11.1c0.1-1,0.1-1.9,0.1-2.9c1.4-31.1,16.1-53.8,43.2-68.7c0.2-0.1,0.6-0.1,0.9-0.1
	C295.4,421.4,295.6,421.6,295.7,421.8L295.7,421.8z"/>
<path class="st0" d="M309,459.2c-1,0.8-2,1.5-2.9,2.3c-7.7,6.1-12.5,14-14.2,23.7c-0.7,4.1-0.7,8.3-1.1,12.4
	c-0.9,10.3-4.9,19.4-11.4,27.4c-6.2,7.6-13.9,13.1-23.2,16.3c-0.7,0.2-1.4,0.8-2.4-0.2c0.9-0.4,1.8-0.8,2.6-1.2
	c17.2-6.9,28.3-19.3,32.5-37.5c1-4.2,1.2-8.5,1.5-12.8c0.7-13.2,6.6-23.4,17.4-30.9c0.2-0.2,0.6-0.1,0.9-0.2L309,459.2L309,459.2z"
	/>
<path class="st0" d="M321.6,529.6c-2.8,10.1-15.2,25.6-25.7,33.9c-11.6,9.2-30.1,17.6-41.2,18c1.8-1.8,4.1-1.2,6-1.9
	c1.9-0.8,4-1.1,6-1.7c2-0.7,3.9-1.4,5.8-2.2c1.9-0.8,3.8-1.6,5.7-2.5c1.9-0.9,3.7-1.9,5.5-2.9c1.8-1,3.5-2.2,5.2-3.3
	s3.4-2.3,5.1-3.6c1.6-1.3,3.2-2.6,4.8-4c1.5-1.4,3-2.8,4.5-4.3c1.5-1.5,2.9-3,4.2-4.5c1.4-1.6,2.6-3.2,3.9-4.9
	c1.2-1.7,2.5-3.3,3.6-5.1c1.1-1.7,2.1-3.6,3.2-5.4C319.1,533.5,319.7,531.4,321.6,529.6L321.6,529.6z"/>
<path class="st0" d="M229.5,674.1c8.8-1.2,17.7-0.5,26.6-1.5c9-1,18-2.5,26.8-4.6c8.7-2.1,17-5.2,25.6-8.3c0.1,1.7-1.2,1.6-1.8,1.9
	c-9.8,3.8-19.8,7-30.2,9.2c-15.2,3.3-30.6,4.3-46.1,3.7C230.1,674.4,229.8,674.2,229.5,674.1L229.5,674.1z"/>
<path class="st0" d="M229,467.1c-0.9-2.4,0.2-4.3,0.8-6.3c3.5-12.1,9.4-23,17.1-33c6.4-8.4,14-15.7,22.8-21.7
	c0.6,1.5-0.6,1.8-1.2,2.3c-3.3,2.8-6.8,5.3-9.9,8.3c-13.8,13.2-23.5,29-28.5,47.5C229.7,465.1,229.3,466.1,229,467.1L229,467.1z"/>
<path class="st0" d="M361.8,533.1c-4.2,15.8-12.1,29.5-22.3,42c-6.8,8.4-17,17.8-22.3,20.2c3.5-3.7,7.1-6,10.1-9
	c3-3,6.1-6.1,8.9-9.4c2.8-3.2,5.5-6.6,8-10.1c2.4-3.4,4.7-6.9,6.7-10.5c2.1-3.7,4.1-7.6,5.9-11.5C358.6,541,360.2,537,361.8,533.1
	L361.8,533.1z"/>
<path class="st0" d="M317.6,388.2c17.2-4.4,51.9,2.8,63.9,12.9c-1.8,0-2.9-1-4.1-1.6c-7.4-3.8-15.2-6.8-23.3-8.6
	c-6.1-1.4-12.2-2.4-18.4-2.6c-4.8-0.2-9.6,0.1-14.3,0.1C320.4,388.4,319.5,388.3,317.6,388.2L317.6,388.2z"/>
<path class="st0" d="M359.3,591.1c4.7-7,9.6-13.8,13.9-21.1c4.3-7.3,7.7-14.9,11.3-23.2c0.1,4-3.4,11.9-10.1,23.5
	C370.1,577.8,365.3,584.9,359.3,591.1L359.3,591.1z"/>
<path class="st0" d="M253.2,441.9c-10.9,22.5-10.7,21.2-14.7,48.3C238.1,472.5,243.4,456.5,253.2,441.9z"/>
<path class="st0" d="M320.5,555.7c2.8-4.3,5.6-8.3,8-12.5c2.4-4.3,4.5-8.8,6.4-13.3c1.9-4.5,3.2-9.2,4.8-13.8
	c0.3,0.1,0.4,0.1,0.5,0.2c0.1,0.1,0.2,0.3,0.1,0.4c-1.3,4.2-2.4,8.5-4,12.7c-2.3,6.5-5.4,12.5-9.2,18.3c-1.7,2.7-3.7,5.2-5.5,7.8
	C321.6,555.6,321.2,555.6,320.5,555.7L320.5,555.7z"/>
<path class="st0" d="M284.6,585.3c1.2-1.8,3.2-2.4,5-3.5c1.8-1.1,3.6-2.1,5.3-3.3c1.9-1.2,3.7-2.5,5.5-3.8c1.7-1.2,3.2-2.7,4.9-3.8
	c1.6-1.1,2.8-2.9,5.7-4c-2,3-4.1,4.4-6.1,6C298.7,577.8,292.1,582.3,284.6,585.3L284.6,585.3z"/>
<path class="st0" d="M330.1,492.2c0.5,7.4-0.6,14.1-2,20.8c-0.3,1.3-0.6,2.7-2,4.7c0.2-3.6,1.2-6.1,1.7-8.7c0.5-2.8,0.9-5.6,1.2-8.5
	C329.1,497.9,328.8,495.2,330.1,492.2L330.1,492.2z"/>
<path class="st0" d="M186.1,401.5c3.9-7.1,8.5-12.9,13.2-18.6c12.2-14.8,26.7-27,43.1-36.9c15.4-9.3,31.9-16,49.5-20
	c5.5-1.2,11.1-2.3,16.8-2.5c-1.5,1-3.2,1.3-4.8,1.5c-27,4.1-51.5,14.4-73.6,30.5c-16.2,11.8-29.8,26-40.9,42.7
	C188.7,399.3,188.3,400.8,186.1,401.5L186.1,401.5z"/>
<path class="st0" d="M228.3,309.7c-13.5,8.4-26.3,17.5-38,28.1c-11.6,10.5-21.7,22.4-31.2,35.3c-0.2-0.9-0.4-1.2-0.3-1.4
	c6-8.7,12.7-16.8,20-24.4c11.4-11.9,24-22.5,37.9-31.4C220.4,313.6,224.2,311.2,228.3,309.7z"/>
<path class="st0" d="M251.3,271.3c-9.5,3.7-18.9,7.6-28,12.3c-9.1,4.7-17.8,10-26.4,15.7c-0.8-1.3,0.3-1.6,0.8-1.9
	c10.9-7.4,22.2-14,34.2-19.3c5.5-2.5,11.2-4.6,16.8-6.9c0.7-0.3,1.4-0.5,2.2-0.7C251,270.7,251.1,271,251.3,271.3L251.3,271.3z"/>
<path class="st0" d="M156.9,353.2c2.5-4.6,11.6-14.6,16.3-17.6c-5.6,6.3-10.5,11.9-15.5,17.5C157.6,353.3,157.2,353.2,156.9,353.2
	L156.9,353.2z"/>
</svg>
